

<svg width="26" height="25" viewBox="0 0 26 25" fill="none" xmlns="http://www.w3.org/2000/svg">
<path fill-rule="evenodd" clip-rule="evenodd" d="M21.2617 12.988C21.2617 12.3802 21.2071 11.7958 21.1058 11.2348H13.0334V14.5502H17.6462C17.4475 15.6216 16.8437 16.5294 15.9359 17.1371V19.2877H18.7059C20.3266 17.7956 21.2617 15.5982 21.2617 12.988Z" fill="#4285F4"/>
<path fill-rule="evenodd" clip-rule="evenodd" d="M13.0334 21.3642C15.3476 21.3642 17.2878 20.5967 18.7059 19.2876L15.9359 17.1371C15.1684 17.6514 14.1866 17.9552 13.0334 17.9552C10.8011 17.9552 8.91153 16.4475 8.23753 14.4216H5.37402V16.6423C6.78435 19.4435 9.68292 21.3642 13.0334 21.3642Z" fill="#34A853"/>
<path fill-rule="evenodd" clip-rule="evenodd" d="M8.23756 14.4217C8.06614 13.9074 7.96874 13.3581 7.96874 12.7932C7.96874 12.2283 8.06614 11.679 8.23756 11.1647V8.94403H5.37405C4.79356 10.1011 4.4624 11.4102 4.4624 12.7932C4.4624 14.1763 4.79356 15.4853 5.37405 16.6424L8.23756 14.4217Z" fill="#FBBC05"/>
<path fill-rule="evenodd" clip-rule="evenodd" d="M13.0334 7.63111C14.2918 7.63111 15.4216 8.06356 16.3099 8.91287L18.7682 6.45454C17.2839 5.07148 15.3437 4.22217 13.0334 4.22217C9.68292 4.22217 6.78435 6.14286 5.37402 8.94404L8.23753 11.1647C8.91153 9.13883 10.8011 7.63111 13.0334 7.63111Z" fill="#EA4335"/>
</svg>
